# Blender v2.82 (sub 7) OBJ File: 'Sheep.blend'
# www.blender.org
mtllib Sheep.mtl
o GoodSheepMesh_Icosphere.001
v 0.000000 2.139986 2.037252
v 0.450107 2.356027 2.364270
v -0.171922 2.356027 2.566383
v -0.556367 2.356027 2.037252
v -0.171922 2.356027 1.508120
v 0.450107 2.356027 1.710233
v 0.171922 2.912397 2.566383
v -0.450107 2.912397 2.364270
v -0.450107 2.912397 1.710233
v 0.171922 2.912397 1.508120
v 0.556367 2.912397 2.037252
v 0.000000 3.160357 2.037252
v -0.236752 0.506730 1.406165
v -0.062383 0.311964 -1.270365
v 0.426527 1.399909 -1.326460
v 0.723442 1.528085 0.293935
v 0.242752 0.406934 1.351266
v -0.282654 0.145815 -0.722971
v 0.456329 0.361138 -1.189638
v 0.863250 1.209190 -0.461448
v 0.533551 0.916100 1.345094
v -0.514219 0.969714 1.346398
v 0.590379 0.936753 -1.288555
v 0.617011 1.445646 0.881897
v -0.201806 1.494969 -1.335689
v 0.697171 1.532831 -0.547705
v 0.292026 1.708603 0.897785
v -0.530321 1.652906 0.666182
v -0.540623 1.658838 -0.604937
v 0.017265 1.802758 -0.792892
v 0.028754 0.523993 1.502362
v 0.818714 0.553414 0.560161
v -0.241188 0.071552 0.047941
v -0.808525 0.670687 0.536052
v 0.019595 0.045958 -0.261472
v -0.287138 0.750256 1.508647
v 0.389145 1.295145 1.399422
v -0.897768 0.778259 0.015416
v -0.389621 0.632247 -1.309628
v 0.753871 0.793505 -0.997135
v 0.093543 1.380176 -1.466810
v -0.525681 1.541118 1.005400
v -0.719221 1.446914 -0.712637
v 0.378487 1.523450 1.186401
v -0.087106 0.258654 1.213699
v 0.476428 0.354656 1.058900
v -0.647095 0.293605 0.195874
v -0.517512 0.538687 1.176000
v -0.713693 0.418406 -0.327044
v 0.117099 0.462107 -1.397697
v 0.901896 1.139062 0.060545
v 0.201370 1.056607 1.563221
v 0.721587 0.768214 1.036713
v -0.824980 1.219194 0.650896
v -0.504900 1.228437 -1.321500
v -0.869046 0.850149 -0.465289
v 0.400675 1.121598 -1.451491
v -0.087537 0.791079 -1.496668
v 0.009984 1.335675 1.504993
v -0.285910 1.824896 0.008716
v 0.184464 1.847331 -0.313644
v 0.393543 1.639227 -1.019201
v 0.057089 1.664036 -1.203651
v -0.430252 1.571439 -1.081731
v -0.672359 1.591498 0.296724
v -0.108196 1.795705 0.780817
v -0.054872 1.523782 1.372608
v 0.332505 1.807956 0.185262
v 0.689883 1.191531 -1.056710
v -0.307782 1.226307 -1.433264
v -0.864313 1.230723 -0.096210
v -0.370012 1.222270 1.443899
v 0.676257 1.153737 1.066541
v 0.846292 1.153803 0.579024
v 0.485143 0.599630 -1.333666
v -0.721464 1.205451 -0.973549
v -0.618727 0.655598 -1.045943
v -0.694185 1.163172 1.063045
v -0.656248 0.772628 1.074768
v 0.399457 0.649242 1.437204
v 0.856212 0.519177 -0.150426
v 0.241230 0.158041 -0.986653
v -0.325373 0.318969 -1.054388
v -0.418487 0.207859 0.589153
v -0.362329 0.347350 1.096338
v 0.737770 0.409315 -0.544473
v 0.573927 0.209160 0.274048
v 0.228583 0.159755 0.858188
v 0.580108 -1.052945 0.905190
v 0.636159 -1.052945 1.053799
v 0.491755 -1.052938 1.169958
v 0.421360 -1.052945 0.900104
v -0.420804 -1.052867 1.143855
v -0.373519 -1.052844 0.959072
v 0.632346 -1.052964 -0.984371
v 0.363150 -1.052820 -1.003793
v 0.468494 -1.052829 -0.881956
v -0.637945 -1.052945 -0.998055
v 0.355911 -1.052947 1.044821
v 0.412780 1.052920 0.893923
v 0.625169 1.052875 0.973905
v 0.568759 1.052889 1.137123
v 0.394307 1.052833 1.113888
v -0.551344 1.052937 0.887378
v -0.631573 1.052988 1.040290
v -0.531038 1.052988 1.153048
v -0.371283 1.052941 1.087004
v -0.401739 1.052978 0.927048
v -0.643258 -1.052928 1.051782
v -0.516793 -1.052738 0.881774
v 0.434483 1.052968 -0.894554
v 0.637713 1.052909 -0.984109
v 0.531038 1.052988 -1.153048
v 0.371101 1.052940 -1.085924
v 0.578316 -1.052857 -1.135064
v 0.411598 -1.052902 -1.135891
v -0.548985 -1.052945 -1.160632
v -0.359365 1.053055 -0.991229
v -0.474034 -1.052729 -0.878146
v -0.617742 1.052969 -0.954814
v -0.567344 1.053045 -1.156131
v -0.396789 1.052983 -1.110364
v -0.363336 -1.053066 -1.082750
v -0.451581 1.052908 -0.885161
v 0.313181 1.254171 1.063719
v 0.353834 1.199174 1.211020
v -0.046595 1.079683 1.486322
v -0.217665 1.108108 1.421465
v 0.063115 2.587652 1.922900
v -0.321553 1.166541 1.280273
v -0.354277 1.229129 1.140055
v -0.166398 2.630336 1.821760
v -0.295819 1.282110 1.008610
v -0.164217 1.334736 0.887053
v 0.035422 1.349668 0.851360
v 0.209483 1.314955 0.924336
v 0.174782 2.653290 1.769670
v 0.282692 1.137275 1.347766
v 0.137210 1.089154 1.465609
v 0.087131 2.702977 1.651020
v -0.074799 2.706572 1.642352
vt 0.190044 0.454080
vt 0.173408 0.482895
vt 0.206680 0.482895
vt 0.156772 0.454080
vt 0.140136 0.482895
vt 0.056956 0.454080
vt 0.040320 0.482895
vt 0.073592 0.482895
vt 0.090228 0.454080
vt 0.106864 0.482895
vt 0.123500 0.454080
vt 0.156772 0.511709
vt 0.190044 0.511709
vt 0.056956 0.511709
vt 0.090228 0.511709
vt 0.123500 0.511709
vt 0.223317 0.511709
vt 0.173408 0.540524
vt 0.206680 0.540524
vt 0.073592 0.540524
vt 0.106864 0.540524
vt 0.140136 0.540524
vt 0.231156 0.483646
vt 0.224369 0.469986
vt 0.216326 0.485503
vt 0.086504 0.465892
vt 0.088480 0.453274
vt 0.071279 0.469446
vt 0.287241 0.492594
vt 0.274392 0.485523
vt 0.267600 0.505010
vt 0.196812 0.493237
vt 0.180785 0.490422
vt 0.186364 0.500080
vt 0.269580 0.452035
vt 0.262515 0.445053
vt 0.261130 0.464497
vt 0.174405 0.452350
vt 0.183379 0.466909
vt 0.103147 0.548125
vt 0.109736 0.543146
vt 0.095313 0.530427
vt 0.108695 0.557734
vt 0.103120 0.524370
vt 0.298860 0.522840
vt 0.286147 0.538975
vt 0.301053 0.531459
vt 0.275127 0.538516
vt 0.280815 0.523611
vt 0.269580 0.529708
vt 0.236464 0.541065
vt 0.247389 0.548125
vt 0.249218 0.534804
vt 0.194542 0.508170
vt 0.181604 0.520211
vt 0.203247 0.522690
vt 0.252399 0.476157
vt 0.246969 0.465599
vt 0.142532 0.523491
vt 0.140859 0.508509
vt 0.125373 0.520910
vt 0.110819 0.507712
vt 0.107874 0.487422
vt 0.119396 0.492414
vt 0.096770 0.508792
vt 0.297319 0.500080
vt 0.291059 0.509297
vt 0.302404 0.509689
vt 0.242130 0.493389
vt 0.244114 0.507798
vt 0.252936 0.500080
vt 0.241841 0.519298
vt 0.232275 0.507342
vt 0.229270 0.525051
vt 0.177483 0.507395
vt 0.164423 0.515900
vt 0.120827 0.474577
vt 0.078353 0.483858
vt 0.083722 0.492068
vt 0.096271 0.485738
vt 0.084744 0.506551
vt 0.075409 0.500080
vt 0.259165 0.490811
vt 0.220677 0.505976
vt 0.208588 0.508565
vt 0.159539 0.473734
vt 0.164173 0.461644
vt 0.136484 0.463470
vt 0.141171 0.473817
vt 0.149416 0.471814
vt 0.144421 0.487012
vt 0.133051 0.487463
vt 0.115972 0.467707
vt 0.097960 0.469207
vt 0.207243 0.476851
vt 0.220694 0.453865
vt 0.129782 0.506488
vt 0.286223 0.480862
vt 0.275260 0.471070
vt 0.264032 0.480862
vt 0.236293 0.470452
vt 0.135858 0.451036
vt 0.130052 0.454756
vt 0.254008 0.524184
vt 0.156514 0.495238
vt 0.162471 0.528173
vt 0.205476 0.543849
vt 0.219154 0.526614
vt 0.188696 0.527192
vt 0.186364 0.538516
vt 0.195692 0.545879
vt 0.137828 0.531922
vt 0.147529 0.548125
vt 0.159564 0.539721
vt 0.157347 0.550339
vt 0.120659 0.530342
vt 0.241841 0.557734
vt 0.149442 0.508585
vt 0.275785 0.515610
vt 0.259450 0.517309
vt 0.164867 0.484915
vt 0.086504 0.519298
vt 0.068012 0.480862
vt 0.070323 0.490471
vt 0.200415 0.475609
vt 0.175332 0.469552
vt 0.179931 0.479808
vt 0.076232 0.474038
vt 0.585620 0.467640
vt 0.591420 0.626572
vt 0.557265 0.467640
vt 0.853973 0.467664
vt 0.864389 0.626574
vt 0.824819 0.626553
vt 0.730057 0.626566
vt 0.785721 0.467650
vt 0.693244 0.467684
vt 0.836950 0.446213
vt 0.725439 0.376394
vt 0.757842 0.448526
vt 0.865087 0.372242
vt 0.793134 0.320396
vt 0.808334 0.626567
vt 0.865146 0.467687
vt 0.811427 0.467659
vt 0.581414 0.626567
vt 0.635445 0.467684
vt 0.575806 0.467684
vt 0.803669 0.467640
vt 0.657833 0.467648
vt 0.675066 0.626572
vt 0.635316 0.626464
vt 0.659397 0.626567
vt 0.688213 0.467670
vt 0.865717 0.399272
vt 0.819222 0.324552
vt 0.783915 0.451113
vt 0.733639 0.360516
vt 0.659810 0.626567
vt 0.618551 0.467684
vt 0.741228 0.626572
vt 0.734187 0.467640
vt 0.574694 0.467650
vt 0.849990 0.626570
vt 0.853978 0.467658
vt 0.784288 0.467640
vt 0.815273 0.626572
vt 0.745966 0.626572
vt 0.730057 0.626566
vt 0.749421 0.467652
vt 0.864389 0.626574
vt 0.714356 0.467640
vt 0.675449 0.626572
vt 0.804697 0.458214
vt 0.731994 0.411901
vt 0.856309 0.375988
vt 0.765770 0.327245
vt 0.789657 0.626566
vt 0.775713 0.453159
vt 0.722283 0.390076
vt 0.758612 0.328007
vt 0.838905 0.332334
vt 0.860401 0.408779
vt 0.843888 0.467640
vt 0.864389 0.626572
vt 0.578316 0.626562
vt 0.595602 0.626567
vt 0.645173 0.467640
vt 0.713583 0.614477
vt 0.693303 0.453184
vt 0.720089 0.453119
vt 0.632570 0.614647
vt 0.666378 0.453193
vt 0.800097 0.452978
vt 0.782394 0.614758
vt 0.746558 0.453894
vt 0.556641 0.614081
vt 0.558499 0.453897
vt 0.585601 0.454105
vt 0.829959 0.614393
vt 0.826889 0.453284
vt 0.854379 0.453177
vt 0.860027 0.513434
vt 0.859889 0.613673
vt 0.639362 0.453242
vt 0.773160 0.453140
vt 0.612562 0.453140
vt 0.153077 0.519298
vt 0.180816 0.529708
vt 0.561899 0.467661
vt 0.561556 0.626574
vn 0.0000 -1.0000 -0.0000
vn 0.6981 -0.5053 0.5072
vn -0.2667 -0.5053 0.8207
vn 0.6981 -0.5053 -0.5072
vn -0.8629 -0.5053 -0.0000
vn -0.2667 -0.5053 -0.8207
vn 0.8716 0.4902 -0.0000
vn 0.2693 0.4902 0.8290
vn -0.7052 0.4902 0.5123
vn -0.7052 0.4902 -0.5123
vn 0.2693 0.4902 -0.8290
vn -0.0000 1.0000 -0.0000
vn 0.9048 -0.3784 0.1953
vn 0.5416 -0.8378 0.0687
vn 0.9248 -0.3788 -0.0347
vn -0.4683 -0.8579 0.2113
vn -0.2548 -0.9662 0.0389
vn -0.1558 -0.8661 0.4749
vn -0.4185 -0.1789 0.8904
vn 0.0112 -0.4563 0.8898
vn 0.2224 0.0927 0.9705
vn 0.9220 -0.1525 -0.3560
vn 0.5739 -0.3264 -0.7511
vn 0.7709 0.0068 -0.6369
vn 0.0647 -0.9969 -0.0457
vn 0.2001 -0.9507 0.2371
vn 0.2263 -0.9209 -0.3173
vn -0.1111 0.9620 0.2495
vn -0.2805 0.9598 0.0021
vn -0.5892 0.7847 0.1927
vn 0.2091 0.9755 -0.0685
vn -0.7359 0.6745 0.0588
vn -0.6136 0.6701 0.4176
vn 0.3534 0.8871 0.2969
vn -0.0843 0.7456 0.6610
vn 0.5023 0.6938 0.5161
vn 0.3477 0.9361 0.0531
vn 0.8660 0.2843 -0.4115
vn 0.5682 0.5090 -0.6465
vn 0.7458 0.6478 -0.1553
vn 0.6081 -0.6878 0.3965
vn -0.5211 0.7276 -0.4461
vn -0.6838 0.2074 -0.6996
vn -0.8511 0.4765 -0.2205
vn -0.9608 0.2756 -0.0303
vn -0.9815 -0.1907 0.0150
vn -0.9736 -0.1257 -0.1904
vn -0.9496 0.2321 0.2107
vn -0.7435 -0.0298 0.6680
vn -0.4927 0.3104 0.8130
vn -0.8797 0.1796 0.4402
vn 0.8912 -0.1815 0.4157
vn 0.8621 0.2546 0.4381
vn 0.7397 0.0161 0.6727
vn 0.7586 0.5720 0.3120
vn 0.9625 0.1916 0.1920
vn 0.7685 0.6331 0.0929
vn 0.4521 0.1009 -0.8863
vn 0.0646 0.4064 -0.9114
vn -0.7946 -0.5892 -0.1464
vn -0.7192 -0.4945 0.4881
vn -0.8785 -0.2153 0.4264
vn -0.9248 -0.3182 0.2084
vn 0.5570 -0.3147 0.7686
vn 0.9857 0.1676 0.0155
vn 0.9680 0.2101 -0.1372
vn -0.1962 -0.7323 -0.6521
vn -0.4045 -0.8832 -0.2372
vn -0.5542 -0.7099 -0.4346
vn -0.5697 -0.3613 -0.7382
vn -0.8132 -0.3699 -0.4492
vn -0.7111 -0.7002 0.0637
vn 0.7784 -0.6003 -0.1836
vn -0.8985 0.1754 -0.4023
vn -0.4159 -0.5594 0.7171
vn 0.3270 -0.7028 0.6318
vn -0.1524 -0.1740 -0.9729
vn 0.0295 0.8577 -0.5132
vn 0.5043 0.7933 -0.3412
vn -0.0249 0.9756 -0.2183
vn -0.5378 0.8274 -0.1615
vn -0.3839 0.2019 -0.9010
vn 0.0074 0.4194 0.9078
vn 0.5533 0.4118 0.7240
vn 0.0784 -0.4890 -0.8687
vn 0.5509 -0.6580 -0.5133
vn -0.5397 -0.7517 0.3791
vn 0.0320 -0.0028 -0.9995
vn 0.3378 0.0218 -0.9410
vn 0.5804 -0.0056 -0.8143
vn -0.5802 -0.0099 0.8144
vn -0.3866 0.0072 0.9222
vn -0.3996 0.0061 0.9167
vn -0.2260 0.0129 0.9740
vn -0.4006 -0.0227 0.9160
vn 0.4495 -0.0288 0.8928
vn 0.0000 -1.0000 0.0001
vn 0.4108 0.0112 0.9116
vn 0.5219 -0.0006 0.8530
vn 0.5300 -0.0015 0.8480
vn -0.9432 0.0147 0.3319
vn -0.9836 -0.0096 0.1801
vn -0.7564 -0.0083 0.6540
vn -0.5904 -0.0109 0.8071
vn 0.9302 -0.0172 -0.3666
vn 0.7135 0.0056 -0.7006
vn 0.9778 0.0022 0.2094
vn -0.9099 0.0197 -0.4143
vn -0.5701 -0.0104 -0.8215
vn 0.0009 -1.0000 0.0005
vn -0.0002 -1.0000 0.0008
vn -0.0001 -1.0000 0.0008
vn -0.0011 -1.0000 0.0011
vn 0.8806 0.0158 0.4737
vn 0.8907 -0.0101 -0.4546
vn -0.8847 -0.0053 -0.4662
vn -0.9665 0.0131 -0.2565
vn -0.8772 -0.0066 -0.4800
vn 0.8749 -0.0217 0.4839
vn -0.8071 -0.0109 -0.5903
vn -0.8809 0.0015 -0.4733
vn -0.8023 -0.0116 -0.5968
vn 0.9649 -0.0110 0.2625
vn 0.9056 0.0269 -0.4232
vn 0.5258 0.0230 0.8503
vn 0.3003 0.0180 -0.9537
vn 0.5792 -0.0059 -0.8152
vn -0.9700 0.0143 -0.2428
vn 0.4032 0.0120 0.9150
vn -0.0332 -0.0136 0.9994
vn -0.7789 0.0269 0.6266
vn -0.0001 -1.0000 -0.0012
vn 0.0001 -1.0000 -0.0006
vn 0.0003 -1.0000 -0.0000
vn -0.7464 0.0078 0.6655
vn 0.8510 0.0136 -0.5250
vn -0.0006 -1.0000 0.0004
vn -0.0003 -1.0000 0.0000
vn 0.0003 -1.0000 -0.0008
vn 0.7547 -0.0059 0.6561
vn 0.7677 0.0056 -0.6407
vn -0.8855 0.0024 -0.4646
vn 0.9413 -0.0024 -0.3375
vn -0.9803 -0.0091 0.1973
vn -0.9948 0.0197 -0.0996
vn 0.2637 -0.2145 0.9404
vn -0.1437 -0.2615 0.9544
vn 0.4068 -0.2482 0.8792
vn -0.9267 0.0379 0.3739
vn -0.6170 -0.1806 0.7660
vn 0.9616 0.1935 -0.1949
vn 0.9902 0.1319 0.0451
vn 0.8818 -0.0839 0.4641
vn -0.5037 0.4749 -0.7216
vn -0.4684 0.4494 -0.7607
vn -0.8996 0.2673 -0.3453
vn 0.4949 0.4570 -0.7391
vn 0.6462 0.3979 -0.6512
vn 0.1219 0.4905 -0.8629
vn -0.9612 -0.0001 0.2757
vn -0.0920 0.9243 0.3705
vn 0.0585 0.9166 0.3955
vn -0.2983 0.6305 -0.7166
vn 0.3279 -0.0011 -0.9447
vn 0.3709 -0.0003 -0.9287
vn -0.9111 -0.0049 -0.4121
usemtl SheepMaterial
s 1
f 1/1/1 2/2/2 3/3/3
f 2/2/2 1/4/1 6/5/4
f 1/6/1 3/7/3 4/8/5
f 1/9/1 4/8/5 5/10/6
f 1/11/1 5/10/6 6/5/4
f 2/2/2 6/5/4 11/12/7
f 3/3/3 2/2/2 7/13/8
f 4/8/5 3/7/3 8/14/9
f 5/10/6 4/8/5 9/15/10
f 6/5/4 5/10/6 10/16/11
f 2/2/2 11/12/7 7/13/8
f 3/3/3 7/13/8 8/17/9
f 4/8/5 8/14/9 9/15/10
f 5/10/6 9/15/10 10/16/11
f 6/5/4 10/16/11 11/12/7
f 7/13/8 11/12/7 12/18/12
f 8/17/9 7/13/8 12/19/12
f 9/15/10 8/14/9 12/20/12
f 10/16/11 9/15/10 12/21/12
f 11/12/7 10/16/11 12/22/12
f 32/23/13 87/24/14 81/25/15
f 84/26/16 33/27/17 45/28/18
f 36/29/19 31/30/20 52/31/21
f 40/32/22 75/33/23 23/34/24
f 33/35/17 35/36/25 88/37/26
f 87/24/14 35/38/25 82/39/27
f 66/40/28 60/41/29 28/42/30
f 61/43/31 60/41/29 66/40/28
f 60/41/29 65/44/32 28/42/30
f 42/45/33 66/46/28 28/47/30
f 27/48/34 66/46/28 67/49/35
f 67/49/35 44/50/36 27/48/34
f 68/51/37 66/52/28 27/53/34
f 69/54/38 40/32/22 23/34/24
f 69/54/38 15/55/39 26/56/40
f 46/57/41 88/58/26 87/24/14
f 64/59/42 55/60/43 43/61/44
f 43/61/44 71/62/45 65/44/32
f 38/63/46 71/62/45 56/64/47
f 65/44/32 71/62/45 54/65/48
f 22/66/49 72/67/50 78/68/51
f 53/69/52 73/70/53 21/71/54
f 24/72/55 73/70/53 74/73/56
f 24/72/55 74/73/56 16/74/57
f 57/75/58 41/76/59 15/55/39
f 56/64/47 49/77/60 38/63/46
f 48/78/61 79/79/62 34/80/63
f 78/81/51 79/79/62 22/82/49
f 21/71/54 80/83/64 53/69/52
f 51/84/65 81/25/15 20/85/66
f 20/85/66 81/25/15 40/32/22
f 14/86/67 82/39/27 18/87/68
f 18/88/68 83/89/69 14/90/67
f 39/91/70 83/89/69 77/92/71
f 49/77/60 18/88/68 47/93/72
f 38/63/46 49/77/60 47/93/72
f 34/80/63 47/94/72 48/78/61
f 38/63/46 47/94/72 34/80/63
f 86/95/73 87/24/14 82/39/27
f 35/96/25 87/24/14 88/58/26
f 76/97/74 55/60/43 77/92/71
f 13/98/75 45/99/18 31/30/20
f 45/99/18 88/58/26 17/100/76
f 88/58/26 46/57/41 17/100/76
f 45/99/18 33/35/17 88/37/26
f 46/101/41 87/24/14 32/23/13
f 18/88/68 35/102/25 33/103/17
f 47/93/72 18/88/68 33/103/17
f 18/87/68 82/39/27 35/38/25
f 74/73/56 53/69/52 32/23/13
f 54/65/48 38/63/46 34/80/63
f 44/104/36 24/72/55 27/53/34
f 14/90/67 39/91/70 58/105/77
f 15/55/39 41/76/59 63/106/78
f 68/107/37 16/108/57 26/56/40
f 62/109/79 26/56/40 15/55/39
f 30/110/80 61/111/31 62/109/79
f 29/112/81 60/113/29 30/114/80
f 61/115/31 30/114/80 60/113/29
f 64/59/42 43/61/44 29/112/81
f 29/116/81 65/44/32 60/41/29
f 67/49/35 66/46/28 42/45/33
f 16/74/57 68/51/37 27/53/34
f 61/117/31 66/52/28 68/51/37
f 24/72/55 16/74/57 27/53/34
f 26/56/40 20/85/66 69/54/38
f 58/105/77 70/118/82 41/76/59
f 54/65/48 71/62/45 38/63/46
f 42/45/33 78/68/51 72/67/50
f 67/49/35 42/45/33 72/67/50
f 67/49/35 72/67/50 59/119/83
f 21/71/54 73/70/53 37/120/84
f 74/73/56 73/70/53 53/69/52
f 16/74/57 74/73/56 51/84/65
f 58/105/77 41/76/59 57/75/58
f 14/90/67 58/105/77 50/121/85
f 43/61/44 55/60/43 76/97/74
f 77/92/71 49/77/60 56/64/47
f 42/122/33 54/65/48 78/81/51
f 13/123/75 36/124/19 48/78/61
f 80/83/64 52/31/21 31/30/20
f 21/71/54 37/120/84 52/31/21
f 17/100/76 80/83/64 31/30/20
f 17/100/76 46/57/41 80/83/64
f 40/32/22 81/25/15 86/125/73
f 82/126/27 19/127/86 86/125/73
f 45/28/18 85/128/87 84/26/16
f 17/100/76 31/30/20 45/99/18
f 92/129/88 100/130/89 89/131/90
f 119/132/91 124/133/92 120/134/93
f 106/135/94 109/136/95 93/137/96
f 89/138/1 99/139/1 92/140/1
f 90/141/1 99/139/1 89/138/1
f 91/142/97 99/139/1 90/141/1
f 112/143/98 97/144/99 95/145/100
f 111/146/101 96/147/102 97/148/103
f 119/132/91 120/134/93 98/149/104
f 123/150/105 122/151/106 118/152/107
f 114/153/108 116/154/109 96/147/102
f 98/155/110 117/156/111 119/157/112
f 119/157/112 117/156/111 123/158/113
f 107/159/114 93/137/96 94/160/115
f 98/149/116 121/161/117 117/162/118
f 123/150/105 118/152/107 119/163/119
f 109/136/120 104/164/121 110/165/122
f 106/135/94 93/137/96 107/159/114
f 90/166/123 101/167/124 102/168/125
f 116/154/109 113/169/126 115/170/127
f 98/149/116 120/134/128 121/161/117
f 111/171/129 97/144/99 112/143/98
f 114/153/108 96/147/102 111/146/101
f 91/172/130 102/168/125 103/173/131
f 110/174/132 94/175/133 109/176/133
f 94/175/133 93/177/134 109/176/133
f 105/178/135 109/136/95 106/135/94
f 112/143/136 115/170/127 113/169/126
f 97/179/137 96/180/137 116/181/138
f 115/182/139 95/183/138 116/181/138
f 95/183/138 97/179/137 116/181/138
f 113/169/126 116/154/109 114/153/108
f 89/184/90 100/185/89 101/167/124
f 119/163/119 118/152/107 124/186/140
f 107/159/114 94/160/115 108/187/141
f 104/164/121 109/136/120 105/178/142
f 115/170/127 112/143/136 95/145/143
f 99/188/144 103/173/131 100/130/145
f 129/189/146 127/190/147 139/191/148
f 132/192/149 128/193/150 127/190/147
f 125/194/151 137/195/152 138/196/153
f 141/197/154 134/198/155 133/199/156
f 129/189/146 139/191/148 138/196/153
f 140/200/157 136/201/158 135/202/159
f 135/202/159 134/203/155 141/204/154
f 130/205/160 132/192/149 133/199/156
f 129/189/146 132/192/149 127/190/147
f 140/200/157 135/202/159 141/204/154
f 137/195/152 129/189/146 138/196/153
f 138/196/161 126/206/161 125/194/161
f 133/199/162 131/207/162 130/205/162
f 132/192/149 141/197/154 133/199/156
f 26/56/40 16/74/57 51/84/65 20/85/66
f 65/44/32 29/116/81 43/61/44
f 64/59/42 63/106/78 25/208/163
f 41/76/59 70/118/82 25/208/163
f 19/127/86 75/33/23 40/32/22 86/125/73
f 36/29/19 72/67/50 22/66/49
f 33/27/17 84/26/16 47/94/72
f 31/30/20 36/29/19 13/98/75
f 77/92/71 55/60/43 39/91/70
f 26/56/40 62/109/79 61/111/31 68/107/37
f 63/106/78 41/76/59 25/208/163
f 30/114/80 63/106/78 64/59/42 29/112/81
f 15/55/39 63/209/78 62/109/79
f 62/109/79 63/209/78 30/110/80
f 37/120/84 44/50/36 67/49/35 59/119/83
f 15/55/39 69/54/38 23/34/24 57/75/58
f 20/85/66 40/32/22 69/54/38
f 25/208/163 70/118/82 55/60/43 64/59/42
f 56/64/47 71/62/45 43/61/44 76/97/74
f 72/67/50 36/29/19 52/31/21 59/119/83
f 44/104/36 37/120/84 73/70/53 24/72/55
f 59/119/83 52/31/21 37/120/84
f 58/105/77 57/75/58 75/33/23 50/121/85
f 75/33/23 57/75/58 23/34/24
f 19/127/86 50/121/85 75/33/23
f 79/79/62 78/81/51 54/65/48 34/80/63
f 56/64/47 76/97/74 77/92/71
f 22/82/49 79/79/62 48/78/61 36/124/19
f 53/69/52 80/83/64 46/57/41 32/23/13
f 21/71/54 52/31/21 80/83/64
f 32/23/13 81/25/15 51/84/65 74/73/56
f 19/127/86 82/39/27 14/86/67 50/121/85
f 77/92/71 83/89/69 18/88/68 49/77/60
f 83/89/69 39/91/70 14/90/67
f 48/78/61 47/94/72 84/26/16 85/128/87
f 85/128/87 45/28/18 13/123/75 48/78/61
f 58/105/77 39/91/70 55/60/43 70/118/82
f 87/24/14 86/95/73 81/25/15
f 121/161/164 122/151/106 123/150/105 117/162/164
f 108/187/141 94/160/115 110/210/165 104/211/165
f 91/172/130 90/166/123 102/168/125
f 125/194/151 136/201/158 140/200/157 137/195/152
f 90/166/123 89/184/90 101/167/124
f 99/188/144 91/172/130 103/173/131
f 92/129/166 99/188/144 100/130/145
f 28/42/30 65/44/32 54/65/48 42/122/33
f 130/205/160 128/193/150 132/192/149
